<svg xmlns="http://www.w3.org/2000/svg" version="1.1" xmlns:xlink="http://www.w3.org/1999/xlink" xmlns:svgjs="http://svgjs.dev/svgjs" width="2000" height="1500" viewBox="0 0 2000 1500"><rect width="2000" height="1500" fill="#ffffff"></rect><g transform="matrix(0.75,0,0,0.75,249.090909090909,282.75364372469653)"><svg viewBox="0 0 396 247" data-background-color="#ffffff" preserveAspectRatio="xMidYMid meet" height="1247" width="2000" xmlns="http://www.w3.org/2000/svg" xmlns:xlink="http://www.w3.org/1999/xlink"><g id="tight-bounds" transform="matrix(1,0,0,1,0.2400000000000091,-0.09999999999999432)"><svg viewBox="0 0 395.52 247.2" height="247.2" width="395.52"><g><svg></svg></g><g><svg viewBox="0 0 395.52 247.2" height="247.2" width="395.52"><g transform="matrix(1,0,0,1,75.54432,81.66120412703972)"><svg viewBox="0 0 244.43135999999998 83.87759174592054" height="83.87759174592054" width="244.43135999999998"><g><svg viewBox="0 0 330.3631748865759 113.3654352331156" height="83.87759174592054" width="244.43135999999998"><g transform="matrix(1,0,0,1,0,15.66772657708038)"><svg viewBox="0 0 244.43135999999998 82.02998207895484" height="82.02998207895484" width="244.43135999999998"><g id="textblocktransform"><svg viewBox="0 0 244.43135999999998 82.02998207895484" height="82.02998207895484" width="244.43135999999998" id="textblock"><g><svg viewBox="0 0 244.43135999999998 46.663297655821246" height="46.663297655821246" width="244.43135999999998"><g transform="matrix(1,0,0,1,0,0)"><svg width="244.43135999999998" viewBox="-8.6 -29.65 255.07999999999998 48.7" height="46.663297655821246" data-palette-color="#00ccff"><path d="M40.75-21.65L40.75-21.65Q39.55-21.65 37.55-23.4L37.55-23.4Q37.6-22.65 37.6-21.85L37.6-21.85Q37.6-17.85 36-12.1 34.4-6.35 31.18-1.5 27.95 3.35 24.6 3.35L24.6 3.35Q21.8 3.35 19.78 1.15 17.75-1.05 16.7-4.6L16.7-4.6Q14.8-11.35 14.8-19.15L14.8-19.15Q11.35-10.1 8.2-4.25L8.2-4.25Q2.9 5.15-2 6.65L-2 6.65Q-3.25 7.05-4.25 7.05-5.25 7.05-6 6.85L-6 6.85Q-8.05 6.15-8.55 4.05L-8.55 4.05Q-8.6 3.8-8.6 3.6-8.6 3.4-8.55 3.1-8.5 2.8-8.25 2.93-8 3.05-7.75 3.85L-7.75 3.85Q-7.4 5.2-6 5.55L-6 5.55Q-5.15 5.8-4.35 5.8-3.55 5.8-2.8 5.55L-2.8 5.55Q2 4.05 6.7-4.5L6.7-4.5Q9.95-10.75 13.3-22.1L13.3-22.1Q10.55-19.6 6.8-19.35L6.8-19.35Q6.3-19.3 6.28-19.7 6.25-20.1 6.85-20.2L6.85-20.2Q9-20.4 11.3-22.45 13.6-24.5 14.75-27.15L14.75-27.15Q14.95-27.8 16.5-27.78 18.05-27.75 18-27.15L18-27.15Q17.8-26.6 17.55-24.5 17.3-22.4 17.3-20.35L17.3-20.35Q17.3-11.55 20.05-3.8L20.05-3.8Q22 1.65 25 1.65 28 1.65 30.6-3.6 33.2-8.85 34.18-14 35.15-19.15 35.15-21.23 35.15-23.3 34.95-24.33 34.75-25.35 33.6-28.7L33.6-28.7Q33.55-28.85 33.95-29.23 34.35-29.6 34.55-29.65L34.55-29.65Q35.5-29.65 36.33-28.5 37.15-27.35 38-25.8L38-25.8Q39.45-23 40.7-23L40.7-23 41.3-23.15Q41.75-23.15 41.85-22.65L41.85-22.65Q41.85-22.25 41.5-21.98 41.15-21.7 40.75-21.65ZM43.75 0.55L43.75 0.55Q42.95 0.55 42.02 0.08 41.1-0.4 40.45-1.28 39.8-2.15 39.8-3.15 39.8-4.15 40.25-5.05L40.25-5.05Q41.25-7.15 43.47-9.13 45.7-11.1 48.1-12.5 50.5-13.9 51.9-14.25 53.3-14.6 54.62-14.6 55.95-14.6 56.9-13.93 57.85-13.25 57.85-12.5L57.85-12.5Q57.85-12.25 57.8-12.2 57.75-12.15 57.55-12.25L57.55-12.25Q56.95-13.2 55.07-13.2 53.2-13.2 50.82-11.98 48.45-10.75 46.35-8.9L46.35-8.9Q44.6-7.25 43.27-5.18 41.95-3.1 41.95-2.15L41.95-2.15Q41.95-0.3 43-0.3 44.05-0.3 46.2-2L46.2-2Q49.75-5 51.05-6.4L51.05-6.4Q55.65-11.35 56-11.35L56-11.35Q56.6-11.35 57.45-11 58.3-10.65 58-10.15L58-10.15Q55.45-6.55 55-2.9L55-2.9Q54.95-2.45 54.95-1.75 54.95-1.05 55.35-0.6L55.35-0.6Q56.1 0.2 57.4-0.5 58.7-1.2 61.02-3.3 63.35-5.4 64.75-7.4L64.75-7.4Q64.95-7.65 65.2-7.53 65.45-7.4 65.45-7.3L65.45-7.3Q65.45-6.55 63.07-4.03 60.7-1.5 59.45-0.6L59.45-0.6Q57.1 1.15 55.1 1.15L55.1 1.15Q53.2 1.15 52.55-0.75L52.55-0.75Q52.4-1.35 52.4-2.1L52.4-2.1Q52.4-4.35 53.35-6.85L53.35-6.85Q53.15-6.75 51.5-4.85 49.85-2.95 47.67-1.2 45.5 0.55 43.75 0.55ZM66.4 0.4L66.4 0.4Q64.59 1.3 64.09 1.3 63.6 1.3 63.6 1.15 63.6 1 63.67 0.83 63.75 0.65 64.37-1.05 65-2.75 65.95-5.35 66.9-7.95 67.59-9.7L67.59-9.7Q66.45-8.45 64.9-6.25L64.9-6.25Q64.65-5.9 64.22-6.05 63.8-6.2 64.5-7.1L64.5-7.1Q66.15-9.1 68.65-12.85L68.65-12.85Q67.9-13.25 67.9-13.63 67.9-14 68-14.2L68-14.2Q68.25-14.8 68.9-14.45L68.9-14.45Q69.2-14.35 69.3-14.35L69.3-14.35Q71.5-20.15 74.8-24.7L74.8-24.7Q76.59-27.25 78.55-28.43 80.5-29.6 82.2-29.6L82.2-29.6Q83.4-29.6 84.5-29.03 85.59-28.45 85.59-27.15L85.59-27.15Q85.59-24.65 81.3-19.9L81.3-19.9Q79-17.45 76.15-15.4 73.3-13.35 71.09-12.4L71.09-12.4Q69.15-8.1 67.65-3.4L67.65-3.4 70.9-7.65Q70.84-8.1 70.84-8.6L70.84-8.6Q70.84-10.1 71.5-10.45L71.5-10.45Q71.84-10.6 71.95-9.85L71.95-9.85 72.15-9.15Q76-13.65 77.7-14.45L77.7-14.45Q78.5-14.85 79.15-14.85 79.8-14.85 80.3-14.5 80.8-14.15 80.8-13.75L80.8-13.75Q80.8-13.05 79.65-12.5L79.65-12.5Q74.15-9.85 72.4-8L72.4-8Q73.59-3.8 74.75-1.4 75.9 1 78.37 4 80.84 7 82.9 7L82.9 7Q84.59 7 84.3 5.5L84.3 5.5Q84.09 4.15 83.47 3.18 82.84 2.2 83.34 2.2L83.34 2.2Q83.8 2.25 84.3 2.65L84.3 2.65Q84.59 3 85 3.88 85.4 4.75 85.4 5.35L85.4 5.35Q85.34 6.75 84.05 7.55 82.75 8.35 81.55 8.35L81.55 8.35Q79.2 8.35 76.95 6.03 74.7 3.7 73.2 0.4 71.7-2.9 71.09-6.35L71.09-6.35Q70.2-5.1 69.09-3.35L69.09-3.35Q66.84 0.1 66.4 0.4ZM82.75-24.3Q84.09-26.55 84.09-27.45 84.09-28.35 83.34-28.35 82.59-28.35 81.45-27.45L81.45-27.45Q78.25-25 76.05-21.88 73.84-18.75 71.7-14.1L71.7-14.1Q76.34-16.25 80.15-20.6L80.15-20.6Q81.4-22.05 82.75-24.3ZM125.09 1.25L125.09 1.25Q123.54 1.25 122.84-0.13 122.14-1.5 122.14-3.63 122.14-5.75 123.04-9.45L123.04-9.45Q121.29-9.6 117.09-10.15L117.09-10.15Q110.14-1.55 105.54 1.8L105.54 1.8Q101.59 4.75 97.34 4.75L97.34 4.75Q94.64 4.75 92.72 3.4 90.79 2.05 90.79-0.6L90.79-0.6Q90.79-1.1 91.04-1.53 91.29-1.95 91.54-1.75 91.79-1.55 91.79-0.6L91.79-0.6Q91.79 1.1 93.12 1.95 94.44 2.8 96.34 2.8L96.34 2.8Q100.44 2.8 104.42 0.13 108.39-2.55 115.24-10.35L115.24-10.35Q107.89-11.25 105.54-11.25L105.54-11.25Q99.19-11.25 97.69-7.1L97.69-7.1Q97.49-6.55 97.49-6.08 97.49-5.6 97.69-5.23 97.89-4.85 97.77-4.63 97.64-4.4 97.34-4.42 97.04-4.45 96.84-4.75L96.84-4.75Q96.29-5.7 96.29-6.6L96.29-6.6Q96.29-9.7 97.42-11.18 98.54-12.65 100.04-13.05L100.04-13.05Q101.84-13.55 104.24-13.55 106.64-13.55 116.34-11.65L116.34-11.65Q119.04-14.75 124.54-21.63 130.04-28.5 130.04-28.6L130.04-28.6 130.09-28.6Q130.14-28.65 130.34-28.75L130.34-28.75Q131.54-29.45 132.94-29.45L132.94-29.45Q133.44-29.45 133.44-28.95L133.44-28.95Q133.44-28.9 133.39-28.83 133.34-28.75 133.29-28.63 133.24-28.5 133.19-28.4L133.19-28.4Q128.39-20.45 125.74-10.5L125.74-10.5 125.59-10.15 126.84-10.1Q127.24-10.05 128.27-10.05 129.29-10.05 130.44-10.53 131.59-11 131.92-11.55 132.24-12.1 132.49-11.8 132.74-11.5 132.54-11.15L132.54-11.15Q131.99-10.15 130.59-9.7L130.59-9.7Q129.39-9.2 128.22-9.2 127.04-9.2 126.69-9.2L126.69-9.2 125.34-9.25Q124.39-4.9 124.39-2.33 124.39 0.25 125.79 0.25L125.79 0.25Q127.14 0.25 129.99-1.9 132.84-4.05 135.34-7.45L135.34-7.45Q135.49-7.65 135.74-7.55 135.99-7.45 135.99-7.3 135.99-7.15 135.92-6.93 135.84-6.7 135.14-5.8L135.14-5.8Q133.04-3 129.99-0.5L129.99-0.5Q127.79 1.25 125.09 1.25ZM127.84-23.9L127.84-23.9Q127.89-24 127.97-24.18 128.04-24.35 128.09-24.45L128.09-24.45Q121.84-15.9 118.04-11.25L118.04-11.25 123.29-10.4Q124.69-15.85 127.84-23.9ZM148.59-14.2L148.59-14.2Q149.74-14.2 149.74-12.98 149.74-11.75 148.59-9.6 147.44-7.45 146.89-6.1L146.89-6.1Q145.94-3.8 145.94-2.43 145.94-1.05 146.34-0.6L146.34-0.6Q147.09 0.2 148.39-0.53 149.69-1.25 152.01-3.33 154.34-5.4 155.74-7.4L155.74-7.4Q155.94-7.65 156.21-7.53 156.49-7.4 156.49-7.28 156.49-7.15 156.39-7L156.39-7Q155.64-5.65 153.69-3.55 151.74-1.45 149.94-0.18 148.14 1.1 146.39 1.1L146.39 1.1Q144.69 1.05 143.99 0.33 143.29-0.4 143.29-1.5 143.29-2.6 143.49-3.63 143.69-4.65 144.24-6L144.24-6Q145.14-8.15 145.81-9.35 146.49-10.55 146.49-10.93 146.49-11.3 146.09-11.3L146.09-11.3Q145.29-11.3 143.04-9.35L143.04-9.35Q141.49-7.9 138.46-3.88 135.44 0.15 135.04 0.4L135.04 0.4Q133.24 1.3 132.79 1.3 132.34 1.3 132.34 1.15 132.34 1 132.44 0.73 132.54 0.45 133.41-2 134.29-4.45 135.31-7.38 136.34-10.3 136.56-10.9 136.79-11.5 136.86-11.93 136.94-12.35 137.04-12.65 137.14-12.95 137.41-13.33 137.69-13.7 138.14-13.73 138.59-13.75 139.29-13.63 139.99-13.5 139.99-13L139.99-13Q139.99-12.65 139.44-11.48 138.89-10.3 136.29-3.4L136.29-3.4Q138.09-5.6 140.84-8.47 143.59-11.35 145.49-12.85L145.49-12.85Q147.39-14.2 148.59-14.2ZM157.36-9.13Q159.58-11.1 161.98-12.5 164.38-13.9 165.78-14.25 167.19-14.6 168.53-14.6 169.88-14.6 171.08-13.7L171.08-13.7Q177.94-29.6 184.19-29.6L184.19-29.6Q186.28-29.6 187.03-28.4L187.03-28.4Q187.38-27.8 187.38-27.35L187.38-27.35Q187.38-26.1 186.31-24.18 185.23-22.25 182.98-19.95 180.73-17.65 176.53-14.28 172.33-10.9 171.88-10.5L171.88-10.5Q170.28-6.8 169.38-3.35 168.48 0.1 168.48 1.8 168.48 3.5 169.08 4.5L169.08 4.5Q169.38 5.15 169.98 5.28 170.58 5.4 171.01 5.13 171.44 4.85 171.66 4.65 171.88 4.45 172.21 4.28 172.53 4.1 172.69 4.2 172.83 4.3 172.63 4.75L172.63 4.75Q172.23 5.25 171.88 5.6L171.88 5.6Q171.08 6.15 170.01 6.15 168.94 6.15 168.58 6.1L168.58 6.1Q166.19 5.7 166.19 2.6L166.19 2.6Q166.19-0.4 166.98-2.95L166.98-2.95Q168.08-6.45 168.98-8.75L168.98-8.75Q160.98 0.55 157.63 0.55L157.63 0.55Q156.83 0.55 155.91 0.08 154.98-0.4 154.33-1.28 153.69-2.15 153.69-3.15 153.69-4.15 154.13-5.05L154.13-5.05Q155.13-7.15 157.36-9.13ZM169.98-11.2L170.69-12.9Q170.08-13.2 168.58-13.2 167.08-13.2 164.71-11.98 162.33-10.75 160.23-8.9L160.23-8.9Q158.48-7.25 157.16-5.18 155.83-3.1 155.83-2.15L155.83-2.15Q155.83-0.3 156.88-0.3 157.94-0.3 160.08-2L160.08-2Q165.63-6.55 169.98-11.2L169.98-11.2ZM185.33-25.5L185.33-25.5Q185.98-26.7 185.98-27.53 185.98-28.35 185.26-28.35 184.53-28.35 183.33-27.45L183.33-27.45Q177.83-23.25 173.38-13.4L173.38-13.4Q176.63-15.5 180.19-19 183.73-22.5 185.33-25.5ZM223.58-21.65L223.58-21.65Q222.38-21.65 220.38-23.4L220.38-23.4Q220.43-22.65 220.43-21.85L220.43-21.85Q220.43-17.85 218.83-12.1 217.23-6.35 214-1.5 210.78 3.35 207.43 3.35L207.43 3.35Q204.63 3.35 202.6 1.15 200.58-1.05 199.53-4.6L199.53-4.6Q197.63-11.35 197.63-19.15L197.63-19.15Q194.18-10.1 191.03-4.25L191.03-4.25Q185.73 5.15 180.83 6.65L180.83 6.65Q179.58 7.05 178.58 7.05 177.58 7.05 176.83 6.85L176.83 6.85Q174.78 6.15 174.28 4.05L174.28 4.05Q174.23 3.8 174.23 3.6 174.23 3.4 174.28 3.1 174.33 2.8 174.58 2.93 174.83 3.05 175.08 3.85L175.08 3.85Q175.43 5.2 176.83 5.55L176.83 5.55Q177.68 5.8 178.48 5.8 179.28 5.8 180.03 5.55L180.03 5.55Q184.83 4.05 189.53-4.5L189.53-4.5Q192.78-10.75 196.13-22.1L196.13-22.1Q193.38-19.6 189.63-19.35L189.63-19.35Q189.13-19.3 189.1-19.7 189.08-20.1 189.68-20.2L189.68-20.2Q191.83-20.4 194.13-22.45 196.43-24.5 197.58-27.15L197.58-27.15Q197.78-27.8 199.33-27.78 200.88-27.75 200.83-27.15L200.83-27.15Q200.63-26.6 200.38-24.5 200.13-22.4 200.13-20.35L200.13-20.35Q200.13-11.55 202.88-3.8L202.88-3.8Q204.83 1.65 207.83 1.65 210.83 1.65 213.43-3.6 216.03-8.85 217-14 217.98-19.15 217.98-21.23 217.98-23.3 217.78-24.33 217.58-25.35 216.43-28.7L216.43-28.7Q216.38-28.85 216.78-29.23 217.18-29.6 217.38-29.65L217.38-29.65Q218.33-29.65 219.15-28.5 219.98-27.35 220.83-25.8L220.83-25.8Q222.28-23 223.53-23L223.53-23 224.13-23.15Q224.58-23.15 224.68-22.65L224.68-22.65Q224.68-22.25 224.33-21.98 223.98-21.7 223.58-21.65ZM222.73 19.05L222.73 19.05Q222.33 19.05 221.73 18.9L221.73 18.9Q219.18 18.25 219.18 16.23 219.18 14.2 221.8 11.15 224.43 8.1 232.88 2.5L232.88 2.5Q237.58-7.1 238.83-10.95L238.83-10.95Q238.23-10.25 236.48-7.93 234.73-5.6 233.38-3.98 232.03-2.35 230.13-0.9 228.23 0.55 226.63 0.55 225.03 0.55 224.15-0.18 223.28-0.9 223.18-1.7 223.08-2.5 223.08-3.05L223.08-3.05Q223.08-4.9 224.08-6.75L224.08-6.75Q225.58-9.8 228.13-12L228.13-12Q229.08-12.9 229.8-12.9 230.53-12.9 231.13-12.45L231.13-12.45Q231.78-11.75 231.53-11.25L231.53-11.25Q229.63-10.15 227.18-7L227.18-7Q225.88-5.3 225.38-2.7L225.38-2.7Q225.33-2.35 225.33-1.83 225.33-1.3 225.75-0.98 226.18-0.65 226.63-0.65L226.63-0.65Q228.18-0.65 229.88-2.3 231.58-3.95 233.13-5.78 234.68-7.6 236.65-10.15 238.63-12.7 239.25-13.5 239.88-14.3 240.53-14.3L240.53-14.3Q241.33-14.3 242.18-13.85 243.03-13.4 242.9-13.15 242.78-12.9 240.35-7.48 237.93-2.05 236.83 0.3L236.83 0.3Q238.03-0.35 240.9-2.78 243.78-5.2 245.78-7.7L245.78-7.7Q246.28-8.3 246.43-7.8L246.43-7.8Q246.48-7.7 246.48-7.48 246.48-7.25 246.18-6.85L246.18-6.85Q244.63-4.8 241.23-1.7 237.83 1.4 235.83 2.5L235.83 2.5Q231.58 11.25 230.13 13.5L230.13 13.5Q226.38 19.05 222.73 19.05ZM231.93 4.4L231.93 4.4Q225.93 8.9 223.35 11.5 220.78 14.1 220.78 15.98 220.78 17.85 222.08 17.85L222.08 17.85Q223.08 17.85 224.38 16.82 225.68 15.8 226.88 14.1 228.08 12.4 228.7 11.18 229.33 9.95 230.43 7.58 231.53 5.2 231.93 4.4Z" opacity="1" transform="matrix(1,0,0,1,0,0)" fill="#00ccff" class="wordmark-text-0" data-fill-palette-color="primary" id="text-0"></path></svg></g></svg></g><g transform="matrix(1,0,0,1,100.925708544,57.679382313216905)"><svg viewBox="0 0 143.50565145599998 24.350599765737933" height="24.350599765737933" width="143.50565145599998"><g transform="matrix(1,0,0,1,0,0)"><svg width="143.50565145599998" viewBox="-1.05 -36.55 347.95 59.05" height="24.350599765737933" data-palette-color="#00ccff"><path d="M64.7-28.65L64.7-28.65 65.15-31.15Q65.15-34.5 61.7-34.5L61.7-34.5Q58.85-34.5 55.1-31.6L55.1-31.6Q50.3-27.65 45.4-19.4L45.4-19.4Q43.9-16.8 41.28-11.98 38.65-7.15 37.65-5.4L37.65-5.4Q32.3 4.2 30.25 4.2L30.25 4.2Q30.15 4.2 30.15 3.88 30.15 3.55 30.55 3.45L30.55 3.45Q31.1 2.6 31.1 0.53 31.1-1.55 30.55-5L30.55-5Q29.8-9 29.7-10.4L29.7-10.4Q27.1-6.25 22.55-0.55L22.55-0.55Q16.5 7.15 14.7 7.15L14.7 7.15Q14.55 7.15 14.55 6.9 14.55 6.65 15.1 6.4L15.1 6.4Q18.4 5 23.6-2.25L23.6-2.25Q26.95-6.85 29.6-11.5L29.6-11.5Q29.4-13.3 29.4-16.5 29.4-19.7 30.15-23.1L30.15-23.1Q31.2-27.85 33.7-29.3L33.7-29.3Q34.4-29.75 34.95-29.75L34.95-29.75Q37.15-29.75 37.15-27L37.15-27Q37.15-23 32.3-14.65L32.3-14.65Q32.55-12.25 32.98-9.38 33.4-6.5 33.4-5.5L33.4-5.5Q33.4-0.35 31.2 3.15L31.2 3.15Q33.1 1.8 36.3-4.2L36.3-4.2Q38.15-7.65 42.3-15.7L42.3-15.7Q46.1-22.75 49.9-27.75L49.9-27.75Q54.55-33.65 59.45-35.95L59.45-35.95Q60.65-36.55 61.8-36.55L61.8-36.55Q63.7-36.55 64.6-35.25L64.6-35.25Q65.6-33.95 65.6-32.05L65.6-32.05Q65.6-31.5 65.33-30.05 65.05-28.6 64.75-28.55L64.75-28.55Q64.7-28.6 64.7-28.65ZM22.85-16.8L22.85-16.8Q22.85-11.2 20.25-4.9L20.25-4.9Q19.25-2.4 14.8 6.2L14.8 6.2Q14.65 6.35 14.5 6.35L14.5 6.35Q14.1 6.35 14.1 6.08 14.1 5.8 15.8 0.88 17.5-4.05 18.45-7.35L18.45-7.35Q19.9-12.8 19.9-16.6L19.9-16.6Q19.9-23.5 16.6-26.4L16.6-26.4Q17.2-23.2 17.2-19.15L17.2-19.15Q17.2-12 15.33-3.9 13.45 4.2 10.2 9.65L10.2 9.65Q10.05 9.9 9.95 9.9 9.85 9.9 9.85 9.38 9.85 8.85 11.88 2.55 13.9-3.75 14.85-7.5L14.85-7.5Q16.6-14.2 16.6-18.98 16.6-23.75 15.8-27L15.8-27Q14.15-28.05 12-28.05L12-28.05Q7.3-28.05 3.83-24.03 0.35-20 0.35-15.25L0.35-15.25Q0.35-12.55 1.58-11.35 2.8-10.15 4.78-10.15 6.75-10.15 8.8-11.55 10.85-12.95 12.35-15L12.35-15Q12.5-15.2 12.6-15.2 12.7-15.2 12.7-15.05 12.7-14.9 12.6-14.7L12.6-14.7Q11.4-12.7 8.7-10.88 6-9.05 4.15-9.05 2.3-9.05 1.15-9.85L1.15-9.85Q-0.2-10.7-0.63-11.95-1.05-13.2-1.05-15.4-1.05-17.6 0.15-20.3L0.15-20.3Q1.8-23.9 5.6-26.33 9.4-28.75 13.45-28.75L13.45-28.75Q14.4-28.75 15.35-28.6L15.35-28.6Q13.95-32.45 11.25-32.95L11.25-32.95Q11-33.05 11-33.2L11-33.2Q11-33.7 11.7-33.7L11.7-33.7Q14.6-33.7 16.1-28.4L16.1-28.4Q22.85-26.5 22.85-16.8ZM35.9-27.3L35.9-27.3Q35.9-29.4 34.85-29.4L34.85-29.4Q31.9-29.4 31.9-21.1L31.9-21.1Q31.9-19.2 32.15-16.3L32.15-16.3Q35.9-23.8 35.9-27.3ZM60.05-6.8L60.05-6.8Q60.1-6.8 60.1-6.65 60.1-6.5 59.7-5.8L59.7-5.8Q58.15-3.3 55.2-1.18 52.25 0.95 49.65 0.95L49.65 0.95Q46.1 0.95 46.1-3.65L46.1-3.65Q46.1-5.2 46.45-6.95L46.45-6.95Q46-7.35 45.65-8.05L45.65-8.05Q45.7-8 45.9-7.93 46.1-7.85 46.27-7.78 46.45-7.7 46.65-7.65L46.65-7.65Q47.15-10.1 49.7-12.7 52.25-15.3 54.65-15.3L54.65-15.3Q55.2-15.3 55.2-15.18 55.2-15.05 54.5-14.65L54.5-14.65Q52.65-13.65 51.05-11.55L51.05-11.55Q49.35-9.45 48.6-7.35L48.6-7.35 48.7-7.25Q51.1-7.25 53.7-9.55 56.3-11.85 56.3-14.25L56.3-14.25Q56.3-14.95 55.92-15.58 55.55-16.2 54.7-16.2 53.85-16.2 52.57-15.43 51.3-14.65 51.17-14.65 51.05-14.65 51.05-14.7L51.05-14.7Q51.05-15.3 52.67-15.95 54.3-16.6 55.32-16.6 56.35-16.6 57.1-15.95 57.85-15.3 57.85-14.15L57.85-14.15Q57.85-11.5 54.57-9.15 51.3-6.8 48.4-6.55L48.4-6.55Q48-5.35 48-4.25L48-4.25Q48-0.1 51-0.1L51-0.1Q53.3-0.1 55.6-1.93 57.9-3.75 59.3-6.1L59.3-6.1Q59.75-6.8 60.05-6.8ZM85.74-6.3Q86.04-6.7 86.19-6.7 86.34-6.7 86.34-6.48 86.34-6.25 86.14-6L86.14-6Q81.64 0.7 79.19 0.7L79.19 0.7Q77.84 0.7 77.17-0.58 76.49-1.85 76.49-3.43 76.49-5 76.99-7.05L76.99-7.05Q73.84-0.05 70.49-0.05L70.49-0.05Q68.44-0.05 68.44-2.7L68.44-2.7Q68.44-6.95 72.57-11.55 76.69-16.15 80.79-16.15L80.79-16.15Q82.74-16.15 82.74-14.45L82.74-14.45Q82.74-12.35 79.94-10.25L79.94-10.25Q78.49-6.65 78.49-3.33 78.49 0 79.74 0L79.74 0Q81.39 0 85.74-6.3L85.74-6.3ZM80.44-11.95L80.44-11.95Q81.24-13.05 81.24-14.15 81.24-15.25 80.19-15.25L80.19-15.25Q77.69-15.25 73.64-10.33 69.59-5.4 69.59-2.75L69.59-2.75Q69.59-1.6 70.69-1.6L70.69-1.6Q73.84-1.6 76.79-8.6L76.79-8.6Q75.89-8.35 75.59-8.35 75.29-8.35 75.29-8.5L75.29-8.5Q75.29-8.75 75.99-9L75.99-9 77.54-9.9Q77.64-10.75 78.59-12.13 79.54-13.5 80.39-13.5L80.39-13.5Q80.69-13.5 80.69-13.1 80.69-12.7 80.44-11.95ZM99.79-11.5L99.79-11.5Q99.79-10.05 98.92-8.8 98.04-7.55 97.24-7.55L97.24-7.55Q97.09-7.55 97.09-7.75L97.09-7.75Q97.39-8.5 97.79-9.38 98.19-10.25 98.19-11.38 98.19-12.5 97.34-12.5L97.34-12.5Q96.19-12.5 93.72-9.73 91.24-6.95 90.24-5.2L90.24-5.2 88.09 0.55Q87.99 0.65 87.72 0.65 87.44 0.65 86.92 0.3 86.39-0.05 86.39-0.3L86.39-0.3Q86.49-0.5 86.67-0.95 86.84-1.4 86.99-1.65L86.99-1.65Q88.94-5.8 89.67-8.38 90.39-10.95 90.39-13.45L90.39-13.45Q90.19-12.65 88.59-9.9L88.59-9.9Q86.19-5.75 85.89-5.75 85.59-5.75 85.59-5.9L85.59-5.9Q85.59-6 87.67-9.35 89.74-12.7 90.49-15.6L90.49-15.6Q90.79-16.9 91.49-16.9L91.49-16.9Q92.29-16.9 92.29-14.9L92.29-14.9Q92.29-11.3 89.99-6.05L89.99-6.05Q92.69-9.4 93.74-10.55L93.74-10.55Q96.59-13.6 98.19-13.6 99.79-13.6 99.79-11.5ZM114.99-6.8L114.99-6.8Q115.04-6.8 115.04-6.65 115.04-6.5 114.64-5.8L114.64-5.8Q113.09-3.3 110.14-1.18 107.19 0.95 104.59 0.95L104.59 0.95Q101.04 0.95 101.04-3.65L101.04-3.65Q101.04-5.2 101.39-6.95L101.39-6.95Q100.94-7.35 100.59-8.05L100.59-8.05Q100.64-8 100.84-7.93 101.04-7.85 101.21-7.78 101.39-7.7 101.59-7.65L101.59-7.65Q102.09-10.1 104.64-12.7 107.19-15.3 109.59-15.3L109.59-15.3Q110.14-15.3 110.14-15.18 110.14-15.05 109.44-14.65L109.44-14.65Q107.59-13.65 105.99-11.55L105.99-11.55Q104.29-9.45 103.54-7.35L103.54-7.35 103.64-7.25Q106.04-7.25 108.64-9.55 111.24-11.85 111.24-14.25L111.24-14.25Q111.24-14.95 110.86-15.58 110.49-16.2 109.64-16.2 108.79-16.2 107.51-15.43 106.24-14.65 106.11-14.65 105.99-14.65 105.99-14.7L105.99-14.7Q105.99-15.3 107.61-15.95 109.24-16.6 110.26-16.6 111.29-16.6 112.04-15.95 112.79-15.3 112.79-14.15L112.79-14.15Q112.79-11.5 109.51-9.15 106.24-6.8 103.34-6.55L103.34-6.55Q102.94-5.35 102.94-4.25L102.94-4.25Q102.94-0.1 105.94-0.1L105.94-0.1Q108.24-0.1 110.54-1.93 112.84-3.75 114.24-6.1L114.24-6.1Q114.69-6.8 114.99-6.8ZM141.38 2.7L141.38 2.7Q141.38 3.05 140.51 3.05 139.63 3.05 137.88 2.88 136.13 2.7 134.88 2.7L134.88 2.7Q136.58 6.1 136.58 8.6L136.58 8.6Q136.58 14.35 129.08 18.7L129.08 18.7Q122.58 22.5 116.23 22.5L116.23 22.5Q106.98 22.5 106.98 16.95L106.98 16.95Q106.98 16.05 107.08 15.6L107.08 15.6Q107.38 13.8 109.78 11L109.78 11Q117.28 2.25 132.43 1.85L132.43 1.85 130.78-2.3Q128.33-0.2 126.33-0.2L126.33-0.2Q124.53-0.2 124.53-2.15L124.53-2.15Q124.53-5.8 128.63-10.25L128.63-10.25Q128.53-11.45 128.53-11.95L128.53-11.95Q128.53-15 129.68-17.2L129.68-17.2Q131.13-20 133.88-20L133.88-20Q134.28-20 134.98-19.9L134.98-19.9Q136.13-19.65 136.66-18.25 137.18-16.85 137.18-16.23 137.18-15.6 137.13-15.35L137.13-15.35Q140.13-17.15 140.13-19.7L140.13-19.7Q140.13-20.6 140.33-20.6L140.33-20.6Q140.83-20.6 140.83-18.85L140.83-18.85Q140.83-15.5 137.03-13.7L137.03-13.7Q136.73-11.1 135.13-7.88 133.53-4.65 131.68-3.15L131.68-3.15Q132.53-1.7 134.43 1.85L134.43 1.85Q141.38 2 141.38 2.7ZM134.18 7.75L134.18 7.75Q134.18 6.2 132.78 2.75L132.78 2.75Q125.03 3.1 119.03 5.65L119.03 5.65Q111.43 8.9 109.18 14.85L109.18 14.85Q108.83 15.7 108.83 16.55L108.83 16.55Q108.83 19 111.18 20.38 113.53 21.75 116.18 21.75L116.18 21.75Q121.58 21.75 127.88 17.25 134.18 12.75 134.18 7.75ZM135.13-16.05L135.13-16.05Q135.13-19 133.73-19L133.73-19Q132.53-19 131.43-17.35L131.43-17.35Q129.33-14.3 129.33-11.35L129.33-11.35Q129.33-10.95 129.38-10.8L129.38-10.8Q130.48-11.9 132.08-12.8L132.08-12.8 135.03-14.5Q135.13-15.6 135.13-16.05ZM134.88-13.05L134.88-13.05Q131.23-11.35 129.43-9.7L129.43-9.7Q129.78-7.25 131.28-4L131.28-4Q132.58-5.2 133.73-8.15 134.88-11.1 134.88-13.05ZM128.73-8.9L128.73-8.9Q125.93-5.2 125.93-3.55 125.93-1.9 126.88-1.9L126.88-1.9Q128.73-1.9 130.43-3.25L130.43-3.25Q128.93-6.9 128.73-8.9ZM155.73-6.8L155.73-6.8Q155.78-6.8 155.78-6.65 155.78-6.5 155.38-5.8L155.38-5.8Q153.83-3.3 150.88-1.18 147.93 0.95 145.33 0.95L145.33 0.95Q141.78 0.95 141.78-3.65L141.78-3.65Q141.78-5.2 142.13-6.95L142.13-6.95Q141.68-7.35 141.33-8.05L141.33-8.05Q141.38-8 141.58-7.93 141.78-7.85 141.96-7.78 142.13-7.7 142.33-7.65L142.33-7.65Q142.83-10.1 145.38-12.7 147.93-15.3 150.33-15.3L150.33-15.3Q150.88-15.3 150.88-15.18 150.88-15.05 150.18-14.65L150.18-14.65Q148.33-13.65 146.73-11.55L146.73-11.55Q145.03-9.45 144.28-7.35L144.28-7.35 144.38-7.25Q146.78-7.25 149.38-9.55 151.98-11.85 151.98-14.25L151.98-14.25Q151.98-14.95 151.61-15.58 151.23-16.2 150.38-16.2 149.53-16.2 148.26-15.43 146.98-14.65 146.86-14.65 146.73-14.65 146.73-14.7L146.73-14.7Q146.73-15.3 148.36-15.95 149.98-16.6 151.01-16.6 152.03-16.6 152.78-15.95 153.53-15.3 153.53-14.15L153.53-14.15Q153.53-11.5 150.26-9.15 146.98-6.8 144.08-6.55L144.08-6.55Q143.68-5.35 143.68-4.25L143.68-4.25Q143.68-0.1 146.68-0.1L146.68-0.1Q148.98-0.1 151.28-1.93 153.58-3.75 154.98-6.1L154.98-6.1Q155.43-6.8 155.73-6.8ZM172.98-16.1L172.98-16.1Q172.98-15.25 164.53-12.85L164.53-12.85Q162.28-8.5 161.78-7.3L161.78-7.3Q160.48-4.2 160.48-1.35L160.48-1.35Q160.48 0.3 161.58 0.3L161.58 0.3Q162.93 0.3 165.13-1.6L165.13-1.6 167.38-3.55Q167.53-3.55 167.53-3.4 167.53-3.25 167.38-2.95L167.38-2.95Q166.58-1.75 164.68-0.28 162.78 1.2 161.68 1.2L161.68 1.2Q159.18 1.2 159.18-1.85L159.18-1.85Q159.18-4.05 160.28-7.3L160.28-7.3Q159.78-8.7 158.28-9.35L158.28-9.35Q157.83-9.55 156.93-9.9 156.03-10.25 155.48-10.5 154.93-10.75 154.93-11.53 154.93-12.3 155.63-12.45L155.63-12.45 156.98-12.45Q159.58-12.45 162.53-13.05L162.53-13.05 167.33-23.8Q167.68-24.7 169-24.7 170.33-24.7 170.33-24.2L170.33-24.2Q170.33-24.05 168.45-19.93 166.58-15.8 166.38-15.6L166.38-15.6 165.53-14.8 164.93-13.6Q166.13-13.95 172.23-16.1L172.23-16.1Q172.73-16.2 172.85-16.2 172.98-16.2 172.98-16.1ZM162.18-12.2L162.18-12.2Q159.38-11.55 157.13-11.2L157.13-11.2Q159.73-9.85 160.48-8L160.48-8Q160.98-9.4 162.18-12.2ZM185.98-16.1L185.98-16.1Q185.98-15.25 177.53-12.85L177.53-12.85Q175.28-8.5 174.78-7.3L174.78-7.3Q173.48-4.2 173.48-1.35L173.48-1.35Q173.48 0.3 174.58 0.3L174.58 0.3Q175.93 0.3 178.13-1.6L178.13-1.6 180.38-3.55Q180.53-3.55 180.53-3.4 180.53-3.25 180.38-2.95L180.38-2.95Q179.58-1.75 177.68-0.28 175.78 1.2 174.68 1.2L174.68 1.2Q172.18 1.2 172.18-1.85L172.18-1.85Q172.18-4.05 173.28-7.3L173.28-7.3Q172.78-8.7 171.28-9.35L171.28-9.35Q170.83-9.55 169.93-9.9 169.03-10.25 168.48-10.5 167.93-10.75 167.93-11.53 167.93-12.3 168.63-12.45L168.63-12.45 169.98-12.45Q172.58-12.45 175.53-13.05L175.53-13.05 180.33-23.8Q180.68-24.7 182-24.7 183.33-24.7 183.33-24.2L183.33-24.2Q183.33-24.05 181.45-19.93 179.58-15.8 179.38-15.6L179.38-15.6 178.53-14.8 177.93-13.6Q179.13-13.95 185.23-16.1L185.23-16.1Q185.73-16.2 185.85-16.2 185.98-16.2 185.98-16.1ZM175.18-12.2L175.18-12.2Q172.38-11.55 170.13-11.2L170.13-11.2Q172.73-9.85 173.48-8L173.48-8Q173.98-9.4 175.18-12.2ZM190.52-6.85L190.52-6.85Q190.62-6.85 190.62-6.75L190.62-6.75Q190.62-5.9 187.87-3L187.87-3Q185.67-0.8 184.52-0.8L184.52-0.8Q181.97-0.8 181.97-3.35L181.97-3.35Q181.97-5.25 182.97-8.15L182.97-8.15 182.07-6.75Q181.42-5.65 181.17-5.65L181.17-5.65Q181.07-5.65 181.07-5.93 181.07-6.2 181.82-7.2 182.57-8.2 184.02-11.3L184.02-11.3Q184.42-12.35 185.12-13.65L185.12-13.65Q185.37-14.1 186.3-14.1 187.22-14.1 187.22-13.6 187.22-13.1 186.72-12.1 186.22-11.1 185.87-10.95L185.87-10.95Q183.27-5.75 183.27-3.3L183.27-3.3Q183.27-1.65 184.37-1.65L184.37-1.65Q186.17-1.65 188.32-4.25L188.32-4.25Q189.22-5.3 189.42-5.53 189.62-5.75 189.82-6 190.02-6.25 190.17-6.4L190.17-6.4Q190.42-6.65 190.52-6.85ZM188.97-20.45Q190.07-20.95 190.32-20.95 190.57-20.95 190.57-20.83 190.57-20.7 189.42-19.4L189.42-19.4 188.67-17.85Q188.22-16.85 187.52-16.85L187.52-16.85Q186.52-16.85 186.52-17.9L186.52-17.9Q186.52-18.4 187.2-19.18 187.87-19.95 188.97-20.45ZM207.02 2.7L207.02 2.7Q207.02 3.05 206.15 3.05 205.27 3.05 203.52 2.88 201.77 2.7 200.52 2.7L200.52 2.7Q202.22 6.1 202.22 8.6L202.22 8.6Q202.22 14.35 194.72 18.7L194.72 18.7Q188.22 22.5 181.87 22.5L181.87 22.5Q172.62 22.5 172.62 16.95L172.62 16.95Q172.62 16.05 172.72 15.6L172.72 15.6Q173.02 13.8 175.42 11L175.42 11Q182.92 2.25 198.07 1.85L198.07 1.85 196.42-2.3Q193.97-0.2 191.97-0.2L191.97-0.2Q190.17-0.2 190.17-2.15L190.17-2.15Q190.17-5.8 194.27-10.25L194.27-10.25Q194.17-11.45 194.17-11.95L194.17-11.95Q194.17-15 195.32-17.2L195.32-17.2Q196.77-20 199.52-20L199.52-20Q199.92-20 200.62-19.9L200.62-19.9Q201.77-19.65 202.3-18.25 202.82-16.85 202.82-16.23 202.82-15.6 202.77-15.35L202.77-15.35Q205.77-17.15 205.77-19.7L205.77-19.7Q205.77-20.6 205.97-20.6L205.97-20.6Q206.47-20.6 206.47-18.85L206.47-18.85Q206.47-15.5 202.67-13.7L202.67-13.7Q202.37-11.1 200.77-7.88 199.17-4.65 197.32-3.15L197.32-3.15Q198.17-1.7 200.07 1.85L200.07 1.85Q207.02 2 207.02 2.7ZM199.82 7.75L199.82 7.75Q199.82 6.2 198.42 2.75L198.42 2.75Q190.67 3.1 184.67 5.65L184.67 5.65Q177.07 8.9 174.82 14.85L174.82 14.85Q174.47 15.7 174.47 16.55L174.47 16.55Q174.47 19 176.82 20.38 179.17 21.75 181.82 21.75L181.82 21.75Q187.22 21.75 193.52 17.25 199.82 12.75 199.82 7.75ZM200.77-16.05L200.77-16.05Q200.77-19 199.37-19L199.37-19Q198.17-19 197.07-17.35L197.07-17.35Q194.97-14.3 194.97-11.35L194.97-11.35Q194.97-10.95 195.02-10.8L195.02-10.8Q196.12-11.9 197.72-12.8L197.72-12.8 200.67-14.5Q200.77-15.6 200.77-16.05ZM200.52-13.05L200.52-13.05Q196.87-11.35 195.07-9.7L195.07-9.7Q195.42-7.25 196.92-4L196.92-4Q198.22-5.2 199.37-8.15 200.52-11.1 200.52-13.05ZM194.37-8.9L194.37-8.9Q191.57-5.2 191.57-3.55 191.57-1.9 192.52-1.9L192.52-1.9Q194.37-1.9 196.07-3.25L196.07-3.25Q194.57-6.9 194.37-8.9ZM205.47 0.4L205.47 0.3 208.27-12.35Q208.07-13.05 207.17-15.05L207.17-15.05Q207.17-15.4 208.02-15.7L208.02-15.7Q210.52-16.65 211.24-16.65 211.97-16.65 211.97-16.2L211.97-16.2Q210.12-11.6 209.42-9.8L209.42-9.8Q209.42-9.65 209.42-9.5L209.42-9.5Q209.42-7.95 208.97-7.95L208.97-7.95Q208.87-7.95 208.82-8.1L208.82-8.1Q207.77-4.95 207.37-3.5L207.37-3.5Q209.67-7.25 212.07-10.05L212.07-10.05Q215.82-14.4 218.27-14.4L218.27-14.4Q219.42-14.4 219.42-13.5L219.42-13.5Q219.42-13.15 216.52-2.5L216.52-2.5Q219.42-4.65 221.02-7.1L221.02-7.1Q221.27-7.4 221.39-7.4 221.52-7.4 221.52-7.25 221.52-7.1 221.37-6.85L221.37-6.85Q219.17-2.95 216.02-0.65L216.02-0.65Q215.77-0.35 215.39-0.35 215.02-0.35 215.02-0.8 215.02-1.25 215.62-4.2 216.22-7.15 216.49-8.7 216.77-10.25 216.87-12.6L216.87-12.6Q214.82-11.6 211.82-8.3 208.82-5 207.84-3.15 206.87-1.3 206.59-0.13 206.32 1.05 205.89 1.05 205.47 1.05 205.47 0.4L205.47 0.4ZM208.57-13.7L209.02-15.35Q208.77-15.15 208.07-14.85L208.07-14.85 208.57-13.7ZM232.86-9.25L232.86-9.25 232.51-12.95Q232.51-13.3 232.91-13.45L232.91-13.45 235.11-14.05Q235.86-15.75 237.61-15.75L237.61-15.75Q238.36-15.75 238.11-15.15L238.11-15.15 239.31-15.7Q239.41-15.7 239.41-15.55L239.41-15.55Q239.41-15.1 237.81-14.4L237.81-14.4Q236.46-11.3 233.06-2.25L233.06-2.25Q235.96-5.6 237.61-7.8L237.61-7.8Q239.11-10.55 241.31-13.65L241.31-13.65Q241.91-14.55 243.36-14.55 244.81-14.55 244.81-13.45L244.81-13.45Q244.81-13 243.54-9.83 242.26-6.65 242.26-6.45L242.26-6.45Q244.81-8.7 246.96-12.1L246.96-12.1Q247.16-12.45 247.34-12.45 247.51-12.45 247.51-12.2L247.51-12.2Q247.51-11.55 244.86-7.9L244.86-7.9Q241.81-3.85 241.59-3.55 241.36-3.25 240.94-3.25 240.51-3.25 240.51-3.6L240.51-3.6Q240.51-4.1 241.86-9.4L241.86-9.4Q242.26-11 242.26-12.6L242.26-12.6Q240.51-9.95 237.66-6.65L237.66-6.65 232.71-1Q232.56 0.35 231.41 0.35L231.41 0.35Q230.96 0.35 230.96-0.05L230.96-0.05 231.06-0.3Q230.96-0.4 231.51-1.73 232.06-3.05 232.46-5.28 232.86-7.5 232.86-9.25ZM255.96-1.55L255.96-1.55Q255.96-1.15 254.81-0.78 253.66-0.4 253.16-0.4L253.16-0.4Q250.41-0.4 248.86-4.05L248.86-4.05Q247.61-6.85 247.61-9.43 247.61-12 247.96-12.65 248.31-13.3 249.19-13.3 250.06-13.3 250.16-13.05L250.16-13.05Q250.06-13.05 249.91-12.03 249.76-11 249.76-9.05 249.76-7.1 250.61-4.7L250.61-4.7Q251.81-1.25 253.96-1.25L253.96-1.25Q254.41-1.25 254.96-1.48 255.51-1.7 255.74-1.7 255.96-1.7 255.96-1.55ZM234.76-13.2L234.76-13.2 233.41-12.75Q233.66-11.35 233.66-10.1L233.66-10.1Q234.06-11.35 234.76-13.2ZM271.51-6.3Q271.81-6.7 271.96-6.7 272.11-6.7 272.11-6.48 272.11-6.25 271.91-6L271.91-6Q267.41 0.7 264.96 0.7L264.96 0.7Q263.61 0.7 262.94-0.58 262.26-1.85 262.26-3.43 262.26-5 262.76-7.05L262.76-7.05Q259.61-0.05 256.26-0.05L256.26-0.05Q254.21-0.05 254.21-2.7L254.21-2.7Q254.21-6.95 258.34-11.55 262.46-16.15 266.56-16.15L266.56-16.15Q268.51-16.15 268.51-14.45L268.51-14.45Q268.51-12.35 265.71-10.25L265.71-10.25Q264.26-6.65 264.26-3.33 264.26 0 265.51 0L265.51 0Q267.16 0 271.51-6.3L271.51-6.3ZM266.21-11.95L266.21-11.95Q267.01-13.05 267.01-14.15 267.01-15.25 265.96-15.25L265.96-15.25Q263.46-15.25 259.41-10.33 255.36-5.4 255.36-2.75L255.36-2.75Q255.36-1.6 256.46-1.6L256.46-1.6Q259.61-1.6 262.56-8.6L262.56-8.6Q261.66-8.35 261.36-8.35 261.06-8.35 261.06-8.5L261.06-8.5Q261.06-8.75 261.76-9L261.76-9 263.31-9.9Q263.41-10.75 264.36-12.13 265.31-13.5 266.16-13.5L266.16-13.5Q266.46-13.5 266.46-13.1 266.46-12.7 266.21-11.95ZM285.56-11.5L285.56-11.5Q285.56-10.05 284.68-8.8 283.81-7.55 283.01-7.55L283.01-7.55Q282.86-7.55 282.86-7.75L282.86-7.75Q283.16-8.5 283.56-9.38 283.96-10.25 283.96-11.38 283.96-12.5 283.11-12.5L283.11-12.5Q281.96-12.5 279.48-9.73 277.01-6.95 276.01-5.2L276.01-5.2 273.86 0.55Q273.76 0.65 273.48 0.65 273.21 0.65 272.68 0.3 272.16-0.05 272.16-0.3L272.16-0.3Q272.26-0.5 272.43-0.95 272.61-1.4 272.76-1.65L272.76-1.65Q274.71-5.8 275.43-8.38 276.16-10.95 276.16-13.45L276.16-13.45Q275.96-12.65 274.36-9.9L274.36-9.9Q271.96-5.75 271.66-5.75 271.36-5.75 271.36-5.9L271.36-5.9Q271.36-6 273.43-9.35 275.51-12.7 276.26-15.6L276.26-15.6Q276.56-16.9 277.26-16.9L277.26-16.9Q278.06-16.9 278.06-14.9L278.06-14.9Q278.06-11.3 275.76-6.05L275.76-6.05Q278.46-9.4 279.51-10.55L279.51-10.55Q282.36-13.6 283.96-13.6 285.56-13.6 285.56-11.5ZM299.51-11.5L299.51-11.5Q299.51-10.05 298.63-8.8 297.76-7.55 296.96-7.55L296.96-7.55Q296.81-7.55 296.81-7.75L296.81-7.75Q297.11-8.5 297.51-9.38 297.91-10.25 297.91-11.38 297.91-12.5 297.06-12.5L297.06-12.5Q295.91-12.5 293.43-9.73 290.96-6.95 289.96-5.2L289.96-5.2 287.81 0.55Q287.71 0.65 287.43 0.65 287.16 0.65 286.63 0.3 286.11-0.05 286.11-0.3L286.11-0.3Q286.21-0.5 286.38-0.95 286.56-1.4 286.71-1.65L286.71-1.65Q288.66-5.8 289.38-8.38 290.11-10.95 290.11-13.45L290.11-13.45Q289.91-12.65 288.31-9.9L288.31-9.9Q285.91-5.75 285.61-5.75 285.31-5.75 285.31-5.9L285.31-5.9Q285.31-6 287.38-9.35 289.46-12.7 290.21-15.6L290.21-15.6Q290.51-16.9 291.21-16.9L291.21-16.9Q292.01-16.9 292.01-14.9L292.01-14.9Q292.01-11.3 289.71-6.05L289.71-6.05Q292.41-9.4 293.46-10.55L293.46-10.55Q296.31-13.6 297.91-13.6 299.51-13.6 299.51-11.5ZM308.75-6.85L308.75-6.85Q308.85-6.85 308.85-6.75L308.85-6.75Q308.85-5.9 306.1-3L306.1-3Q303.9-0.8 302.75-0.8L302.75-0.8Q300.2-0.8 300.2-3.35L300.2-3.35Q300.2-5.25 301.2-8.15L301.2-8.15 300.3-6.75Q299.65-5.65 299.4-5.65L299.4-5.65Q299.3-5.65 299.3-5.93 299.3-6.2 300.05-7.2 300.8-8.2 302.25-11.3L302.25-11.3Q302.65-12.35 303.35-13.65L303.35-13.65Q303.6-14.1 304.53-14.1 305.45-14.1 305.45-13.6 305.45-13.1 304.95-12.1 304.45-11.1 304.1-10.95L304.1-10.95Q301.5-5.75 301.5-3.3L301.5-3.3Q301.5-1.65 302.6-1.65L302.6-1.65Q304.4-1.65 306.55-4.25L306.55-4.25Q307.45-5.3 307.65-5.53 307.85-5.75 308.05-6 308.25-6.25 308.4-6.4L308.4-6.4Q308.65-6.65 308.75-6.85ZM307.2-20.45Q308.3-20.95 308.55-20.95 308.8-20.95 308.8-20.83 308.8-20.7 307.65-19.4L307.65-19.4 306.9-17.85Q306.45-16.85 305.75-16.85L305.75-16.85Q304.75-16.85 304.75-17.9L304.75-17.9Q304.75-18.4 305.43-19.18 306.1-19.95 307.2-20.45ZM323.4-6.8L323.4-6.8Q323.45-6.8 323.45-6.65 323.45-6.5 323.05-5.8L323.05-5.8Q321.5-3.3 318.55-1.18 315.6 0.95 313 0.95L313 0.95Q309.45 0.95 309.45-3.65L309.45-3.65Q309.45-5.2 309.8-6.95L309.8-6.95Q309.35-7.35 309-8.05L309-8.05Q309.05-8 309.25-7.93 309.45-7.85 309.63-7.78 309.8-7.7 310-7.65L310-7.65Q310.5-10.1 313.05-12.7 315.6-15.3 318-15.3L318-15.3Q318.55-15.3 318.55-15.18 318.55-15.05 317.85-14.65L317.85-14.65Q316-13.65 314.4-11.55L314.4-11.55Q312.7-9.45 311.95-7.35L311.95-7.35 312.05-7.25Q314.45-7.25 317.05-9.55 319.65-11.85 319.65-14.25L319.65-14.25Q319.65-14.95 319.28-15.58 318.9-16.2 318.05-16.2 317.2-16.2 315.93-15.43 314.65-14.65 314.53-14.65 314.4-14.65 314.4-14.7L314.4-14.7Q314.4-15.3 316.03-15.95 317.65-16.6 318.68-16.6 319.7-16.6 320.45-15.95 321.2-15.3 321.2-14.15L321.2-14.15Q321.2-11.5 317.93-9.15 314.65-6.8 311.75-6.55L311.75-6.55Q311.35-5.35 311.35-4.25L311.35-4.25Q311.35-0.1 314.35-0.1L314.35-0.1Q316.65-0.1 318.95-1.93 321.25-3.75 322.65-6.1L322.65-6.1Q323.1-6.8 323.4-6.8ZM339.15-18.8L339.15-18.8Q339.75-18.65 339.75-17.82 339.75-17 338.47-14.9 337.2-12.8 336.5-12.3L336.5-12.3Q335.55-10.35 334.82-7.43 334.1-4.5 334.1-2.25 334.1 0 335.4 0L335.4 0Q336.95 0 339.05-2.7L339.05-2.7Q339.75-3.5 341.75-6.75L341.75-6.75Q341.95-7.05 342.1-7.05 342.25-7.05 342.25-6.9L342.25-6.9 342.15-6.6Q338.3 0.85 334.95 0.85L334.95 0.85Q332.05 0.85 332.05-3.35L332.05-3.35Q332.05-5.4 332.95-9.45L332.95-9.45Q331.05-5.8 329.6-3.7L329.6-3.7Q326.9 0 324.6 0 322.3 0 322.3-3.1L322.3-3.1Q322.3-7.85 327.35-13.2 332.4-18.55 337.25-19.1L337.25-19.1Q340.9-28.05 343.5-33.1L343.5-33.1Q344.35-34.25 346.2-34.25L346.2-34.25Q346.9-34.25 346.9-33.9L346.9-33.9Q343-26.55 339.15-18.8ZM323.55-4.05L323.55-4.05Q323.55-1.85 324.9-1.85L324.9-1.85Q328.55-1.85 332.05-10L332.05-10Q331.05-9.7 330.67-9.7 330.3-9.7 330.3-9.93 330.3-10.15 330.97-10.38 331.65-10.6 332.65-11.3L332.65-11.3Q333.1-12.5 333.37-13.35 333.65-14.2 333.85-14.2L333.85-14.2Q334.2-14.2 334.2-13.75 334.2-13.3 333.75-12.1L333.75-12.1 334.65-12.75 336.75-17.95Q332.95-17.1 328.25-12.4 323.55-7.7 323.55-4.05Z" opacity="1" transform="matrix(1,0,0,1,0,0)" fill="#00ccff" class="slogan-text-1" data-fill-palette-color="secondary" id="text-1"></path></svg></g></svg></g></svg></g></svg></g><g transform="matrix(1,0,0,1,255.44744465739564,0)"><svg viewBox="0 0 74.91573022918026 113.3654352331156" height="113.3654352331156" width="74.91573022918026"><g><svg xmlns="http://www.w3.org/2000/svg" xmlns:xlink="http://www.w3.org/1999/xlink" version="1.1" x="0" y="0" viewBox="20.432000000000002 6.7010000000000005 58.272999999999996 88.18100000000001" enable-background="new 0 0 100 100" xml:space="preserve" height="113.3654352331156" width="74.91573022918026" class="icon-icon-0" data-fill-palette-color="accent" id="icon-0"><g fill="#00ccff" data-fill-palette-color="accent"><g fill="#00ccff" data-fill-palette-color="accent"><g fill="#00ccff" data-fill-palette-color="accent"><path d="M44.623 61.156h-1.598-1.78H27.367h-1.78-1.6V41.286c0-5.688 4.63-10.319 10.318-10.319 5.69 0 10.317 4.63 10.317 10.319V61.156zM34.308 27.409c-7.652 0-13.876 6.227-13.876 13.876v19.871h3.548v33.726h9.208V68.388h2.238l-0.002 26.494h9.216V61.156h3.544V41.286C48.185 33.635 41.959 27.409 34.308 27.409" fill="#00ccff" data-fill-palette-color="accent"></path></g><g fill="#00ccff" data-fill-palette-color="accent"><path d="M26.521 30.22v14.995c0 4.292 3.492 7.787 7.786 7.787 4.292 0 7.786-3.494 7.786-7.787V30.22h-1.207-0.902v3.87 6.226 4.705c0 3.129-2.547 5.677-5.676 5.677-3.131 0-5.676-2.548-5.676-5.677v-4.705-6.226-3.87h-0.904H26.521z" fill="#00ccff" data-fill-palette-color="accent"></path></g></g><g fill="#00ccff" data-fill-palette-color="accent"><polygon points="38.357,33.435 34.306,35.773 30.256,33.435 30.256,38.981 34.306,36.643 38.357,38.981   " fill="#00ccff" data-fill-palette-color="accent"></polygon></g><g fill="#00ccff" data-fill-palette-color="accent"><path d="M29.791 39.788v-7.159l4.515 2.607 4.517-2.607v7.158l-4.517-2.607L29.791 39.788zM34.485 36.208l3.408 1.967v-3.934L34.485 36.208zM30.722 34.242v3.933l3.405-1.966L30.722 34.242z" fill="#00ccff" data-fill-palette-color="accent"></path></g><g fill="#00ccff" data-fill-palette-color="accent"><g fill="#00ccff" data-fill-palette-color="accent"><path d="M34.307 43.087c0.729 0 1.32-0.591 1.32-1.32 0-0.729-0.591-1.32-1.32-1.32s-1.32 0.591-1.32 1.32C32.987 42.496 33.578 43.087 34.307 43.087" fill="#00ccff" data-fill-palette-color="accent"></path></g><g fill="#00ccff" data-fill-palette-color="accent"><path d="M34.307 47.111c0.729 0 1.32-0.591 1.32-1.32 0-0.729-0.591-1.32-1.32-1.32s-1.32 0.591-1.32 1.32C32.987 46.521 33.578 47.111 34.307 47.111" fill="#00ccff" data-fill-palette-color="accent"></path></g><g fill="#00ccff" data-fill-palette-color="accent"><path d="M34.307 30.063c-6.09 0-11.044-4.955-11.044-11.044 0-6.09 4.955-11.045 11.044-11.045 6.09 0 11.044 4.955 11.044 11.045C45.352 25.108 40.397 30.063 34.307 30.063zM34.307 10.767c-4.549 0-8.251 3.701-8.251 8.251 0 4.55 3.702 8.251 8.251 8.251 4.55 0 8.251-3.702 8.251-8.251C42.559 14.468 38.857 10.767 34.307 10.767z" fill="#00ccff" data-fill-palette-color="accent"></path></g><g fill="#00ccff" data-fill-palette-color="accent"><path d="M34.307 23.508c-0.93 0-1.859-0.354-2.567-1.062-0.364-0.364-0.364-0.953 0-1.317 0.363-0.363 0.953-0.363 1.316 0 0.69 0.689 1.812 0.689 2.502 0 0.363-0.363 0.953-0.363 1.316 0 0.363 0.364 0.363 0.954 0 1.317C36.167 23.154 35.236 23.508 34.307 23.508z" fill="#00ccff" data-fill-palette-color="accent"></path></g><g fill="#00ccff" data-fill-palette-color="accent"><path d="M30.507 19.359c-0.382 0-0.691-0.31-0.691-0.691 0-0.382 0.309-0.691 0.691-0.691s0.691 0.31 0.691 0.691C31.198 19.049 30.889 19.359 30.507 19.359" fill="#00ccff" data-fill-palette-color="accent"></path></g><g fill="#00ccff" data-fill-palette-color="accent"><path d="M38.106 19.359c-0.381 0-0.69-0.31-0.69-0.691 0-0.382 0.31-0.691 0.69-0.691 0.382 0 0.691 0.31 0.691 0.691C38.798 19.049 38.488 19.359 38.106 19.359" fill="#00ccff" data-fill-palette-color="accent"></path></g><g fill="#00ccff" data-fill-palette-color="accent"><path d="M29.666 9.291c-0.125-0.466-0.061-0.952 0.18-1.37 0.241-0.417 0.63-0.715 1.095-0.84 0.464-0.125 0.951-0.061 1.369 0.18 0.417 0.241 0.716 0.63 0.841 1.096l-1.35 0.361c-0.028-0.104-0.095-0.192-0.189-0.247s-0.204-0.068-0.309-0.041c-0.105 0.028-0.193 0.096-0.248 0.19-0.055 0.094-0.069 0.204-0.041 0.309L29.666 9.291z" fill="#00ccff" data-fill-palette-color="accent"></path></g><g fill="#00ccff" data-fill-palette-color="accent"><path d="M27.305 11.133c-0.57-0.815-0.372-1.942 0.443-2.513 0.395-0.276 0.874-0.383 1.348-0.299 0.475 0.084 0.888 0.348 1.165 0.742l-1.145 0.801c-0.062-0.089-0.156-0.148-0.263-0.167-0.107-0.018-0.215 0.005-0.305 0.067-0.184 0.129-0.229 0.383-0.1 0.567L27.305 11.133z" fill="#00ccff" data-fill-palette-color="accent"></path></g><g fill="#00ccff" data-fill-palette-color="accent"><path d="M25.412 13.481c-0.369-0.31-0.596-0.745-0.637-1.225-0.042-0.48 0.105-0.948 0.415-1.317s0.745-0.596 1.225-0.638c0.479-0.042 0.947 0.105 1.316 0.415l-0.897 1.07c-0.083-0.07-0.188-0.102-0.297-0.094-0.109 0.009-0.207 0.061-0.277 0.144-0.07 0.083-0.103 0.189-0.094 0.298 0.009 0.108 0.061 0.206 0.144 0.276L25.412 13.481z" fill="#00ccff" data-fill-palette-color="accent"></path></g><g fill="#00ccff" data-fill-palette-color="accent"><path d="M36.111 8.505h-1.396c0-0.225-0.184-0.407-0.408-0.407-0.225 0-0.407 0.183-0.407 0.407h-1.396c0-0.995 0.809-1.804 1.804-1.804S36.111 7.51 36.111 8.505z" fill="#00ccff" data-fill-palette-color="accent"></path></g><g fill="#00ccff" data-fill-palette-color="accent"><path d="M38.972 9.291l-1.35-0.362c0.028-0.105 0.015-0.215-0.04-0.309-0.055-0.094-0.143-0.162-0.247-0.189-0.106-0.029-0.216-0.014-0.31 0.041-0.094 0.054-0.161 0.142-0.189 0.247l-1.35-0.362c0.258-0.96 1.249-1.533 2.21-1.275 0.465 0.125 0.854 0.423 1.095 0.84C39.032 8.339 39.096 8.825 38.972 9.291z" fill="#00ccff" data-fill-palette-color="accent"></path></g><g fill="#00ccff" data-fill-palette-color="accent"><path d="M41.332 11.133l-1.144-0.801c0.062-0.089 0.087-0.197 0.067-0.304-0.019-0.107-0.078-0.201-0.167-0.263C40 9.703 39.891 9.679 39.784 9.697c-0.107 0.019-0.201 0.079-0.263 0.167l-1.145-0.801c0.276-0.395 0.69-0.658 1.165-0.742 0.475-0.083 0.953 0.023 1.348 0.299s0.658 0.689 0.741 1.164C41.715 10.26 41.608 10.739 41.332 11.133z" fill="#00ccff" data-fill-palette-color="accent"></path></g><g fill="#00ccff" data-fill-palette-color="accent"><path d="M43.225 13.481l-0.896-1.071c0.084-0.07 0.135-0.168 0.144-0.276 0.01-0.108-0.023-0.214-0.093-0.297-0.071-0.084-0.169-0.135-0.277-0.145-0.109-0.009-0.214 0.023-0.297 0.094l-0.897-1.07c0.369-0.309 0.835-0.457 1.316-0.415 0.48 0.042 0.915 0.269 1.225 0.638 0.31 0.369 0.457 0.836 0.415 1.317C43.821 12.737 43.595 13.172 43.225 13.481z" fill="#00ccff" data-fill-palette-color="accent"></path></g></g></g><g fill="#00ccff" data-fill-palette-color="accent"><g fill="#00ccff" data-fill-palette-color="accent"><g fill="#00ccff" data-fill-palette-color="accent"><path d="M72.985 42.126v1.642 0.583c0 4.661-4.055 8.455-9.042 8.455-4.985 0-9.043-3.794-9.043-8.455v-0.583-1.642-0.583c0-4.661 4.058-8.455 9.043-8.455 4.987 0 9.042 3.794 9.042 8.455V42.126zM76.105 44.351v-0.583-1.642-0.583c0.002-6.269-5.455-11.371-12.16-11.371-6.707 0-12.162 5.102-12.162 11.371v0.583 1.642 0.583c0 6.268 5.455 11.37 12.162 11.37C70.65 55.721 76.107 50.62 76.105 44.351" fill="#00ccff" data-fill-palette-color="accent"></path></g><g fill="#00ccff" data-fill-palette-color="accent"><path d="M78.705 94.52V67.644c0-7.769-6.99-14.091-14.76-14.091-7.771 0-14.762 6.322-14.762 14.091V94.52h3.604 0.009V67.644c0-5.776 5.371-10.478 11.146-10.478 5.778 0 11.147 4.701 11.147 10.478V94.52h0.017H78.705z" fill="#00ccff" data-fill-palette-color="accent"></path></g><g fill="#00ccff" data-fill-palette-color="accent"><path d="M76.164 31.305c-0.322 0.226-2.228 1.34-3.739-0.692-1.663-2.228 0.967-5.883 1.487-7.12C75.986 24.481 79.355 29.071 76.164 31.305" fill="#00ccff" data-fill-palette-color="accent"></path></g><g fill="#00ccff" data-fill-palette-color="accent"><path d="M51.725 31.305c0.322 0.226 2.229 1.34 3.739-0.692 1.663-2.228-0.967-5.883-1.487-7.12C51.903 24.481 48.534 29.071 51.725 31.305" fill="#00ccff" data-fill-palette-color="accent"></path></g><g fill="#00ccff" data-fill-palette-color="accent"><path d="M71.105 20.674c0 3.882-3.213 7.042-7.16 7.042s-7.161-3.158-7.161-7.042c0-0.085 0.022-0.166 0.025-0.251 1.843-0.702 4.646-2.056 6.808-4.345 1.803 1.635 4.4 3.094 7.353 3.278C71.054 19.784 71.105 20.224 71.105 20.674M74.679 20.215c0-5.82-4.814-10.558-10.733-10.558-5.918 0-10.735 4.737-10.735 10.558 0 5.821 4.815 10.557 10.735 10.557C69.864 30.772 74.679 26.036 74.679 20.215" fill="#00ccff" data-fill-palette-color="accent"></path></g><g fill="#00ccff" data-fill-palette-color="accent"><path d="M63.944 55.146c-3.512 0-6.368-2.857-6.368-6.369 0-3.512 2.856-6.369 6.368-6.369s6.369 2.856 6.369 6.369C70.313 52.289 67.456 55.146 63.944 55.146zM63.944 45.245c-1.947 0-3.532 1.584-3.532 3.533 0 1.948 1.585 3.533 3.532 3.533s3.532-1.585 3.532-3.533C67.477 46.83 65.892 45.245 63.944 45.245z" fill="#00ccff" data-fill-palette-color="accent"></path></g><g fill="#00ccff" data-fill-palette-color="accent"><path d="M61.688 94.522h-3.78c0-1.05-0.854-1.904-1.902-1.904-1.05 0-1.903 0.854-1.903 1.904H50.32c0-3.135 2.55-5.687 5.685-5.687C59.139 88.836 61.688 91.388 61.688 94.522z" fill="#00ccff" data-fill-palette-color="accent"></path></g><g fill="#00ccff" data-fill-palette-color="accent"><path d="M69.344 94.522h-3.782c0-1.05-0.853-1.904-1.902-1.904-1.049 0-1.902 0.854-1.902 1.904h-3.782c0-3.135 2.55-5.687 5.685-5.687S69.344 91.388 69.344 94.522z" fill="#00ccff" data-fill-palette-color="accent"></path></g><g fill="#00ccff" data-fill-palette-color="accent"><path d="M77.05 94.522h-3.781c0-1.05-0.854-1.904-1.902-1.904-1.05 0-1.903 0.854-1.903 1.904h-3.781c0-3.135 2.55-5.687 5.685-5.687C74.5 88.836 77.05 91.388 77.05 94.522z" fill="#00ccff" data-fill-palette-color="accent"></path></g><g fill="#00ccff" data-fill-palette-color="accent"><path d="M63.944 25.81c-0.984 0-1.911-0.384-2.607-1.08-0.369-0.369-0.369-0.968 0-1.337 0.37-0.369 0.968-0.369 1.338 0 0.679 0.679 1.861 0.679 2.539 0 0.37-0.369 0.969-0.369 1.338 0s0.369 0.968 0 1.337C65.855 25.426 64.929 25.81 63.944 25.81z" fill="#00ccff" data-fill-palette-color="accent"></path></g><g fill="#00ccff" data-fill-palette-color="accent"><path d="M60.086 21.594c-0.388 0-0.701-0.314-0.701-0.702s0.313-0.702 0.701-0.702 0.701 0.314 0.701 0.702S60.474 21.594 60.086 21.594" fill="#00ccff" data-fill-palette-color="accent"></path></g><g fill="#00ccff" data-fill-palette-color="accent"><path d="M67.804 21.594c-0.389 0-0.702-0.314-0.702-0.702s0.313-0.702 0.702-0.702c0.387 0 0.701 0.314 0.701 0.702S68.19 21.594 67.804 21.594" fill="#00ccff" data-fill-palette-color="accent"></path></g></g></g></svg></g></svg></g></svg></g></svg></g><g><path d="M245.816 0c68.262 0 123.6 55.338 123.6 123.6 0 68.262-55.338 123.6-123.6 123.6-52 0-96.499-32.111-114.751-77.586l1.679 0c18.166 44.595 61.948 76.029 113.072 76.029 67.403 0 122.043-54.641 122.043-122.043 0-67.403-54.641-122.043-122.043-122.043-51.123 0-94.905 31.434-113.072 76.029l-1.679 0c18.252-45.475 62.751-77.586 114.751-77.586z" fill="#00ccff" stroke="transparent" data-fill-palette-color="tertiary"></path></g></svg></g><defs></defs></svg><rect width="395.52" height="247.2" fill="none" stroke="none" visibility="hidden"></rect></g></svg></g></svg>